<svg id="Слой_1" data-name="Слой 1" xmlns="http://www.w3.org/2000/svg" viewBox="0 0 595.28 144.69"><defs><style>.cls-1{fill:none;}.cls-2{fill:#1d1d1b;}</style></defs><title>SUROVA</title><path class="cls-1" d="M268.1,61.89q0-8.79-5.71-13.59t-16.33-4.79H227V80.28h19.08q10.62,0,16.33-4.8T268.1,61.89Z"/><path class="cls-1" d="M327.47,47a31.68,31.68,0,0,0-30.05,0,27.72,27.72,0,0,0-10.63,10.45,29,29,0,0,0-3.88,14.86,28.92,28.92,0,0,0,3.88,14.85,27.74,27.74,0,0,0,10.63,10.46,31.68,31.68,0,0,0,30.05,0A27.74,27.74,0,0,0,338.1,87.2,28.92,28.92,0,0,0,342,72.35a29,29,0,0,0-3.88-14.86A27.72,27.72,0,0,0,327.47,47Z"/><path d="M130.09,74.92a89.93,89.93,0,0,0-10.54-3.18,97.24,97.24,0,0,1-10.11-3,15.45,15.45,0,0,1-6.27-4.22A10.93,10.93,0,0,1,100.64,57a12.17,12.17,0,0,1,4.8-9.89q4.78-3.87,13.94-3.87a29.52,29.52,0,0,1,8.67,1.35,26.66,26.66,0,0,1,8,4l1-1.39a27.62,27.62,0,0,0-8.11-4.05,30.76,30.76,0,0,0-9.58-1.53,27.66,27.66,0,0,0-11.41,2.09,15.06,15.06,0,0,0-6.8,5.58,14.2,14.2,0,0,0-2.18,7.67,12.54,12.54,0,0,0,2.75,8.49,16.7,16.7,0,0,0,6.66,4.71,93.15,93.15,0,0,0,10.63,3.18,83.54,83.54,0,0,1,10,2.87,15.77,15.77,0,0,1,6.23,4.18,10.77,10.77,0,0,1,2.52,7.5,11.91,11.91,0,0,1-4.83,9.8q-4.84,3.78-14.33,3.79a29.79,29.79,0,0,1-11.68-2.31,22,22,0,0,1-8.45-5.8l-1.22,1.14a22.25,22.25,0,0,0,9,6.23,32.64,32.64,0,0,0,12.46,2.39,28.84,28.84,0,0,0,11.63-2,15.21,15.21,0,0,0,6.93-5.53,13.77,13.77,0,0,0,2.27-7.66,12.29,12.29,0,0,0-2.7-8.33A16.66,16.66,0,0,0,130.09,74.92Z"/><path d="M200.84,77.23q0,12-5.62,18.12t-16.16,6.1q-10.55,0-16.16-6.1t-5.62-18.12V41.85h-1.75V77.31q0,12.72,6.19,19.26t17.34,6.53q11.15,0,17.34-6.53t6.18-19.26V41.85h-1.74Z"/><path d="M265.92,74.13a19,19,0,0,0,3.92-12.24q0-9.49-6.36-14.77t-17.6-5.27H225.23v61H227V81.93h18.9a36.66,36.66,0,0,0,7.15-.61l15.51,21.52h2.17l-15.85-22A19.9,19.9,0,0,0,265.92,74.13Zm-19.86,6.15H227V43.51h19.08q10.62,0,16.33,4.79t5.71,13.59q0,8.81-5.71,13.59T246.06,80.28Z"/><path d="M328.39,45.6a33.71,33.71,0,0,0-31.89,0,29.52,29.52,0,0,0-11.24,11,30.63,30.63,0,0,0-4.09,15.73,30.56,30.56,0,0,0,4.09,15.72,29.45,29.45,0,0,0,11.24,11,33.71,33.71,0,0,0,31.89,0,29.45,29.45,0,0,0,11.24-11,30.56,30.56,0,0,0,4.09-15.72,30.63,30.63,0,0,0-4.09-15.73A29.52,29.52,0,0,0,328.39,45.6Zm9.71,41.6a27.74,27.74,0,0,1-10.63,10.46,31.68,31.68,0,0,1-30.05,0A27.74,27.74,0,0,1,286.79,87.2a28.92,28.92,0,0,1-3.88-14.85,29,29,0,0,1,3.88-14.86A27.72,27.72,0,0,1,297.42,47a31.68,31.68,0,0,1,30.05,0A27.72,27.72,0,0,1,338.1,57.49,29,29,0,0,1,342,72.35,28.92,28.92,0,0,1,338.1,87.2Z"/><polygon points="402.62 41.85 376.31 100.49 350 41.85 347.99 41.85 375.44 102.84 377.18 102.84 404.63 41.85 402.62 41.85"/><path class="cls-2" d="M491.72,70.65a33.35,33.35,0,0,0-6.55.08,43.91,43.91,0,0,0-6.43,1.32,64.19,64.19,0,0,0-6.2,2.19c-6.79,2.8-13.17,6.47-19.75,9.61l-19.5-42h-1.74L412.79,82.26A24.25,24.25,0,0,1,409,77.49a22.38,22.38,0,0,1-2.52-5.68l-1.94.47a24.36,24.36,0,0,0,2.86,6.2,26.66,26.66,0,0,0,4.33,5.2l.28.25-8.78,18.91h2l5.85-12.61c0-.15,1.18-2.62,2.35-5.12A27.06,27.06,0,0,0,423.52,90c.27.07.54.16.81.22l.83.13,1.65.28a24.67,24.67,0,0,0,3.32.3,28,28,0,0,0,6.66-.31A39.14,39.14,0,0,0,443.23,89a60.16,60.16,0,0,0,6.13-2.44c.74-.33,1.46-.68,2.18-1l8.06,17.35h2l-8.43-18.15c6.57-3.3,12.85-7.08,19.55-10a65.23,65.23,0,0,1,6.11-2.29A44.66,44.66,0,0,1,485.2,71a33.73,33.73,0,0,1,6.51-.19A31.08,31.08,0,0,1,498.12,72,31.1,31.1,0,0,0,491.72,70.65ZM449,85.61a60.09,60.09,0,0,1-6.08,2.28,37.94,37.94,0,0,1-6.27,1.44,25.87,25.87,0,0,1-6.4.17,21.19,21.19,0,0,1-3.18-.35l-1.58-.29-.78-.14c-.26-.06-.51-.15-.77-.22a25.22,25.22,0,0,1-9.71-5c.95-2,1.76-3.73,1.77-3.74l16.46-35.57,16.47,35.58,2.17,4.67h0l.07.16C450.42,85,449.69,85.29,449,85.61Z"/></svg>