<svg id="Слой_1" data-name="Слой 1" xmlns="http://www.w3.org/2000/svg" viewBox="0 0 850.39 850.39"><defs><style>.cls-1{fill:#fff;}</style></defs><title>SUROVA</title><path class="cls-1" d="M278.7,427.77a90.53,90.53,0,0,0-10.54-3.18,96.5,96.5,0,0,1-10.11-3,15.31,15.31,0,0,1-6.27-4.22,10.88,10.88,0,0,1-2.53-7.54A12.2,12.2,0,0,1,254,400q4.79-3.87,13.94-3.87a29.42,29.42,0,0,1,8.67,1.35,26.66,26.66,0,0,1,8,4l1-1.39a27.56,27.56,0,0,0-8.1-4,30.83,30.83,0,0,0-9.59-1.53,27.69,27.69,0,0,0-11.41,2.09,15.11,15.11,0,0,0-6.8,5.58,14.19,14.19,0,0,0-2.17,7.67,12.54,12.54,0,0,0,2.74,8.49,16.66,16.66,0,0,0,6.67,4.71,91.91,91.91,0,0,0,10.63,3.18,83.29,83.29,0,0,1,10,2.87,15.7,15.7,0,0,1,6.23,4.18,10.73,10.73,0,0,1,2.53,7.5,11.89,11.89,0,0,1-4.84,9.8q-4.83,3.78-14.33,3.79A29.75,29.75,0,0,1,255.44,452a22.1,22.1,0,0,1-8.46-5.8l-1.22,1.14a22.36,22.36,0,0,0,9,6.23A32.6,32.6,0,0,0,267.2,456a28.91,28.91,0,0,0,11.63-2.05,15.26,15.26,0,0,0,6.93-5.53,13.85,13.85,0,0,0,2.26-7.66,12.24,12.24,0,0,0-2.7-8.33A16.62,16.62,0,0,0,278.7,427.77Z"/><path class="cls-1" d="M349.44,430q0,12-5.62,18.12t-16.16,6.1q-10.55,0-16.16-6.1T305.88,430V394.57h-1.74V430q0,12.72,6.18,19.26t17.34,6.53q11.16,0,17.34-6.53T351.19,430V394.57h-1.75Z"/><path class="cls-1" d="M414.53,427a19,19,0,0,0,3.92-12.24q0-9.5-6.36-14.77t-17.6-5.27H373.84v61h1.74V434.78h18.91a36.48,36.48,0,0,0,7.14-.61l15.51,21.52h2.18l-15.86-21.95A20,20,0,0,0,414.53,427Zm-19.87,6.15H375.58V396.36h19.08q10.63,0,16.34,4.79t5.7,13.59q0,8.81-5.7,13.59T394.66,433.13Z"/><path class="cls-1" d="M477,398.45a33.69,33.69,0,0,0-31.88,0,29.45,29.45,0,0,0-11.24,11,32.21,32.21,0,0,0,0,31.45,29.38,29.38,0,0,0,11.24,11,33.69,33.69,0,0,0,31.88,0,29.38,29.38,0,0,0,11.24-11,32.21,32.21,0,0,0,0-31.45A29.45,29.45,0,0,0,477,398.45Zm9.72,41.6a27.88,27.88,0,0,1-10.63,10.46,31.7,31.7,0,0,1-30.06,0,27.88,27.88,0,0,1-10.63-10.46,30.38,30.38,0,0,1,0-29.71A27.86,27.86,0,0,1,446,399.89a31.7,31.7,0,0,1,30.06,0,27.86,27.86,0,0,1,10.63,10.45,30.38,30.38,0,0,1,0,29.71Z"/><polygon class="cls-1" points="551.23 394.7 524.91 453.34 498.6 394.7 496.6 394.7 524.04 455.69 525.79 455.69 553.23 394.7 551.23 394.7"/><path class="cls-1" d="M646.72,424.89c-16.5-5.43-30.6,4.89-45.3,11.87L581.9,394.7h-1.75L561.4,435.09a23.35,23.35,0,0,1-6.32-10.43l-1.94.47a25.13,25.13,0,0,0,7.49,11.61l-8.79,18.95h2l5.86-12.61c0-.15,1.19-2.64,2.36-5.15a27.18,27.18,0,0,0,13.35,5.5c8.83,1.38,16.91-1.27,24.76-5.05l8,17.31h2l-8.41-18.12C616.32,430.3,630.18,419.85,646.72,424.89ZM575.63,442a25.37,25.37,0,0,1-12.82-5.66l1.75-3.71L581,397.06l16.47,35.58,2.17,4.67h0l.1.22C592.06,441,584.16,443.44,575.63,442Z"/></svg>